<svg xmlns="http://www.w3.org/2000/svg" viewBox="0 0 164 164"><defs><style>.a6fb9b60-1e3c-4ac8-b9b7-5d04f05406ef{fill:#f2733b;}</style></defs><g id="eba086ef-8415-47c7-af8a-f83b7e24850b" data-name="Home 1"><path class="a6fb9b60-1e3c-4ac8-b9b7-5d04f05406ef" d="M73.49,69.36a72.07,72.07,0,0,1-14.95,4.23L55.73,74c-5.14.64-8.86,1.1-13.46,2.85a6.68,6.68,0,0,0-3.88,3.93A7.62,7.62,0,0,0,40.14,90a6.86,6.86,0,0,0,5,2.24,35.93,35.93,0,0,0,5.55-.46,2,2,0,0,1,1.82.67A2,2,0,0,1,53,93.55L75.2,113.89l3-3.33-19-17.45a2,2,0,0,1,.86-3.43l1.41-.35A72.3,72.3,0,0,1,77,87.83c8.61,0,17.39,2.49,26.26,7.56l-8-42.62C88.79,60.71,81.5,66.28,73.49,69.36ZM47.42,88.83a4.94,4.94,0,1,1,3.94-5.77A4.95,4.95,0,0,1,47.42,88.83Zm33-3.14L77.48,70.21c3.62-1.39,10-4.71,16.3-13.52l6.72,35.66C91.45,86.42,84.27,85.66,80.39,85.69Z"/><path class="a6fb9b60-1e3c-4ac8-b9b7-5d04f05406ef" d="M155.63,66.29a75.69,75.69,0,1,0-60.37,88.39A75.7,75.7,0,0,0,155.63,66.29Zm-48.48,34.85a2,2,0,0,1-2.21,0c-9.51-6.23-18.89-9.39-27.94-9.3a79,79,0,0,0-12.19.94l17,15.59a2.87,2.87,0,0,1,.17,4.05l-4.61,5a2.82,2.82,0,0,1-2,.92h-.13a2.83,2.83,0,0,1-1.93-.76L49.92,96.15,49.76,96a42.91,42.91,0,0,1-4.55.29h-.1A10.69,10.69,0,0,1,37.41,93a12.74,12.74,0,0,1-3.68-6.39l0-.1v-.09a.13.13,0,0,1,0-.06h0A12.82,12.82,0,0,1,34.78,79a10.68,10.68,0,0,1,6.06-5.93c5-1.92,9.18-2.44,14.4-3.09L58,69.61a69.67,69.67,0,0,0,14-4C80.49,62.37,88.11,56,94.7,46.78a2,2,0,0,1,3.61.8L108,99.1A2,2,0,0,1,107.15,101.14Zm-.78-42.93,11.9-17.43,3.31,2.27-11.9,17.42ZM110,70l20.45-3.85.74,4L110.77,73.9Zm19.72,29-18-12.3L114,83.32l18,12.31Z"/></g></svg>