<svg xmlns="http://www.w3.org/2000/svg" viewBox="0 0 164 164"><defs><style>.b93af86f-6080-4296-9f35-200db1265807{fill:#2157db;}.b7f697ba-5fca-4b57-b113-e6be336ccafd{fill:#f7d9d5;}</style></defs><g id="a47218d2-5f79-46b4-863b-e4c4b43f7ba6" data-name="Home 1"><path class="b93af86f-6080-4296-9f35-200db1265807" d="M126,20.57c-21.31-7-84.14,2.17-97.36,16.24C1.07,66.12,19,106.79,48.5,129.76,133.18,195.72,180,38.17,126,20.57Z"/><path class="b7f697ba-5fca-4b57-b113-e6be336ccafd" d="M68.63,102.1q-16.8-4-26.49-16.08l1.55-1.51Q57,93.82,69.49,95.68a42.25,42.25,0,0,0,22.19-3,43.67,43.67,0,0,0,18-13.39q7.17-9,11.16-25.79H123a50.32,50.32,0,0,1-8.23,29.79A42.19,42.19,0,0,1,94.56,99.77,42.23,42.23,0,0,1,68.63,102.1Zm13-33h0a5.61,5.61,0,0,1,7.32,3.09h0a5.62,5.62,0,0,1-3.08,7.32h0a5.63,5.63,0,0,1-7.33-3.08h0A5.62,5.62,0,0,1,81.62,69.06Z"/></g></svg>