<svg xmlns="http://www.w3.org/2000/svg" viewBox="0 0 164 164"><defs><style>.b025a233-37c7-4dde-82bc-7bdcb8b9a9e1{fill:#f7d9d5;}.b01816c1-c8de-4c1a-a6f1-20bc61b1d5c8{fill:#f2733b;}.b5ff7032-d6a0-4fc5-be70-d810061df41f{fill:#f16339;}</style></defs><g id="b0d01763-787c-4bef-8c48-45e5a70a200c" data-name="Home 1"><rect class="b025a233-37c7-4dde-82bc-7bdcb8b9a9e1" x="6" y="6" width="152" height="152" rx="76"/><path class="b01816c1-c8de-4c1a-a6f1-20bc61b1d5c8" d="M77.8,118.52v7H75.05v-7c-2.41,0-4.65,0-6.88,0A6.77,6.77,0,0,1,61,111.4c0-6.85,0-13.69,0-20.85-3.23,0-6.39,0-9.54,0-.34,0-.73.64-1,1.05a5.58,5.58,0,0,1-6.58,2.84,5.7,5.7,0,0,1-4-5.37A5.76,5.76,0,0,1,44,83.79c2.64-.71,5,.39,6.57,2.94a2.13,2.13,0,0,0,1.41,1c2.39.1,4.78,0,7.18,0h1.72V76.24c-3-.68-6-1.42-9.07-2-.48-.08-1.26.66-1.66,1.19a5.5,5.5,0,0,1-5.57,2.33,5.24,5.24,0,0,1-4.31-3.68,5.49,5.49,0,0,1,2.93-6.82,5.37,5.37,0,0,1,7.16,2.4,3.19,3.19,0,0,0,2.62,2c2.59.53,5.18,1.1,7.92,1.69.24-3.31.57-6.24-2.47-8.8-4-3.33-7.39-7.27-11.1-10.9a3.83,3.83,0,0,0-2-1,5.58,5.58,0,0,1-1.91-10.75A5.55,5.55,0,0,1,50,43.74c1.62,2.14,1.47,4.79-.41,7.13l-.22.29L61.74,63.52C63.48,60,67,59.39,70.87,59.84l.23-.76c-3.23-2.32-6.34-4.82-9.72-6.88a6,6,0,0,1-2.66-7.49,5.58,5.58,0,0,1,7.58-2.57,5.43,5.43,0,0,1,2.38,7.47,22.09,22.09,0,0,1-1.89,2.48,97.08,97.08,0,0,0,8.36,7.14c1.27.88,3.4.53,5.45.77,0-2.49.09-4.66-.07-6.81,0-.49-.87-1-1.42-1.35a5.57,5.57,0,0,1-2.48-6.22,5.53,5.53,0,0,1,10.54-.57,5.61,5.61,0,0,1-2.61,7c-.48.29-1.08.86-1.11,1.33-.12,2,0,4.1,0,6.22,2.87.4,5.37.46,7.53-1.91A74.92,74.92,0,0,1,97.29,52c-1.8-1.73-3.17-3.6-2.46-6.26A5.57,5.57,0,1,1,102,52.37,18.21,18.21,0,0,0,98.14,55c-1.73,1.41-3.35,2.94-5.48,4.83,4.27-.27,7.8,0,9.56,3.73L114.6,51.17s-.3-.39-.56-.75a5.55,5.55,0,0,1,6.54-8.49,5.75,5.75,0,0,1,3.48,5.73,5.44,5.44,0,0,1-4.78,4.89,4.55,4.55,0,0,0-3.2,1.65c-3.7,3.73-7.35,7.51-11.17,11.11a5.29,5.29,0,0,0-2,4.86,26.48,26.48,0,0,1,0,3.24c3.25-.71,6.33-1.35,9.38-2.11.43-.11.78-.8,1-1.3a5.55,5.55,0,0,1,6.29-3.08,5.62,5.62,0,0,1,4.4,5,5.76,5.76,0,0,1-3.87,5.68,5.68,5.68,0,0,1-6.46-2.34c-.35-.49-1.1-1.12-1.55-1-3,.57-6.07,1.3-9.14,2V87.73c3.17,0,6.27,0,9.37-.06.43,0,.91-.77,1.22-1.28a5.57,5.57,0,0,1,10,4.86,5.46,5.46,0,0,1-6.9,3.15,5.85,5.85,0,0,1-2.87-2.27,2.74,2.74,0,0,0-3-1.63c-2.57.11-5.16,0-7.73,0a2.65,2.65,0,0,0,1,3.41c5,3.51,6.59,8.19,6,14.24-.53,5.06-.11,10.22-.11,15.34v2h-2.73v-5.4c0-5.45-.1-10.9,0-16.35a5.3,5.3,0,0,0-2-4.82,16.22,16.22,0,0,1-1.86-2l-.48.2c0,2,.09,4,0,6.06a10.27,10.27,0,0,1-.85,2.6,10.13,10.13,0,0,1-2.45-1.33c-3.39-3.28-6.64-6.71-10.09-9.93a4,4,0,0,0-3.11-.92c-1.81.43-2.17,2.69-.77,4.19,1.62,1.75,3.44,3.33,5,5.12a5.9,5.9,0,0,1,1.06,2.6,6.15,6.15,0,0,1,0,2.38,7.32,7.32,0,0,0,3.08,7.6c.55.41.66,1.43,1,2.18a7.61,7.61,0,0,1-2.25.77C88.4,118.56,83.23,118.52,77.8,118.52ZM63.87,107.28H88.82c.86-2.41-1.15-3.23-2.22-4.54a3,3,0,0,0-3.07-1.13C73.88,102.86,66,93.68,68.46,84.23a14,14,0,1,1,26.27,9.34c-.24.54-.54,1.46-.29,1.75,1.7,2,3.55,3.81,5.66,6V71H63.87Zm36.2-39.21c.43-3.67-1.16-5.55-4.71-5.56q-13.36,0-26.71,0c-3.57,0-5.14,1.87-4.73,5.56ZM63.93,110.2c-.43,3.7,1.17,5.63,4.72,5.66,7,0,14.08,0,21.12,0a1.43,1.43,0,0,0,.6-.11l-1.92-5.55ZM45.63,92a3,3,0,0,0,2.7-2.9,2.81,2.81,0,1,0-5.61.19A3,3,0,0,0,45.63,92Zm72.92-5.7A2.87,2.87,0,0,0,115.68,89a2.8,2.8,0,1,0,2.87-2.71ZM84.85,47.16A2.86,2.86,0,1,0,82,49.88,2.94,2.94,0,0,0,84.85,47.16Zm-39.33,28a2.86,2.86,0,0,0,2.81-2.77,2.81,2.81,0,1,0-5.62,0A2.91,2.91,0,0,0,45.52,75.16Zm75.76-2.82a3,3,0,0,0-2.75-2.87,2.92,2.92,0,0,0-2.86,3,2.81,2.81,0,0,0,5.61-.08Zm0-25.25a2.86,2.86,0,0,0-2.76-2.82A2.8,2.8,0,0,0,115.68,47a2.74,2.74,0,0,0,2.83,2.89A2.8,2.8,0,0,0,121.28,47.09ZM45.63,49.88A2.74,2.74,0,0,0,48.32,47a2.81,2.81,0,0,0-2.79-2.77,2.86,2.86,0,0,0-2.81,3A2.83,2.83,0,0,0,45.63,49.88Zm18.18-5.61A2.83,2.83,0,0,0,61,47a2.77,2.77,0,0,0,2.66,2.89,2.88,2.88,0,0,0,3-2.8A2.93,2.93,0,0,0,63.81,44.27Zm36.41,5.61A2.77,2.77,0,0,0,103,47.14a2.83,2.83,0,0,0-2.69-2.87,2.81,2.81,0,1,0-.12,5.61Z"/><path class="b5ff7032-d6a0-4fc5-be70-d810061df41f" d="M66.71,104.42v-2.51h2.51v2.51Z"/><path class="b025a233-37c7-4dde-82bc-7bdcb8b9a9e1" d="M87.22,81l2.25,2.12c-3.16,3.09-6,6-9.08,8.77A2.48,2.48,0,0,1,78,92,44.25,44.25,0,0,1,74,88.26L76,86l2.83,3.6Z"/></g></svg>