<svg xmlns="http://www.w3.org/2000/svg" viewBox="0 0 421 316"><defs><style>.bf869ae8-cde4-4ec3-a65a-748dd2da2e3f{fill:#f7d9d5;}</style></defs><g id="a29acff9-815b-4f3a-91c9-ae33cc3cf36f" data-name="Home 1"><path class="bf869ae8-cde4-4ec3-a65a-748dd2da2e3f" d="M334.69,182.65c-3.18-8.52,58.21-44.85,53.79-54.58-3.94-8.69-69.06,17.53-75.15,9.12-5.57-7.72,37.94-63.13,29.69-69.67-7.27-5.76-51.14,49-61.11,44.76-10.42-4.38-1.07-74.69-15.1-78.25-12.17-3.09-40.44,62.6-53.53,60.1s-14.19-73.86-26.55-75.82c-14.47-2.3-38.44,65.14-49.37,63.53-9.42-1.38-14.61-71.57-22.28-71.18-9.58.49-3.41,70-10.6,72.8-8.59,3.32-53.26-49.25-59-43.43-6,6.1,46.25,52.53,42.67,60.4-4.08,9-73.39-3.22-74.89,5.23-1.6,9,67.5,18.48,69,27.8,1.32,8.27-63.13,35.93-59.26,45.19C26.17,186.27,93,163.3,98,172c6.57,11.42-43,62.31-35.41,70.57,8.31,9.1,60-38.17,70.83-32.37,9.82,5.28-3.55,74.4,9.39,77.39,10.6,2.45,33.4-64.93,46.73-63.76,4.15.37,15.29,72.49,38.31,74.93,13.85,1.46,35.89-66.9,51.54-65.71S308,305.2,321.74,305.34c23.39.23,8.44-48.72,10.89-54.64,4-11,70.57,8.88,73-4.76,1.19-6.84-67.38-22.51-67-31,.36-7.53,70.1-18,69.15-26C406.84,181.26,337.44,190,334.69,182.65Z"/></g></svg>