<svg width="120" height="182" viewBox="0 0 120 182" fill="none" xmlns="http://www.w3.org/2000/svg">
<path d="M28.983 140.502L28.679 155.139L95.1546 156.52L95.4587 141.883L28.983 140.502Z" fill="#2157DB"/>
<path d="M55.426 115.116L54.0452 181.592L68.682 181.896L70.0629 115.42L55.426 115.116Z" fill="#2157DB"/>
<path d="M59.7601 119C48.0611 118.954 36.6383 115.441 26.9363 108.903C17.2343 102.365 9.68899 93.0971 5.25448 82.271C0.819974 71.4448 -0.30451 59.5468 2.02323 48.0816C4.35098 36.6163 10.0264 26.0989 18.3317 17.8592C26.6371 9.61963 37.1993 4.02797 48.6827 1.79141C60.1661 -0.445153 72.0548 0.773843 82.8454 5.29424C93.6359 9.81463 102.844 17.4334 109.304 27.187C115.765 36.9406 119.187 48.391 119.14 60.09C119.061 75.7709 112.764 90.78 101.632 101.824C90.4998 112.868 75.4412 119.045 59.7601 119ZM60.1901 13.46C51.0134 13.4225 42.0318 16.1075 34.3813 21.1754C26.7309 26.2433 20.7554 33.4663 17.2108 41.9309C13.6661 50.3954 12.7116 59.7211 14.4679 68.7282C16.2242 77.7353 20.6125 86.0191 27.0776 92.5318C33.5427 99.0445 41.7942 103.493 50.7882 105.316C59.7822 107.138 69.1146 106.252 77.6049 102.769C86.0952 99.287 93.3619 93.3646 98.4857 85.7515C103.61 78.1384 106.36 69.1767 106.39 60C106.417 47.7057 101.569 35.902 92.9097 27.1749C84.25 18.4477 72.4843 13.5088 60.1901 13.44V13.46Z" fill="#2157DB"/>
<path d="M63.6701 100C53.0614 99.9562 42.9046 95.7 35.4341 88.1676C27.9636 80.6352 23.7913 70.4436 23.8351 59.835C23.8788 49.2263 28.1351 39.0695 35.6675 31.599C43.1999 24.1285 53.3914 19.9562 64.0001 20V32.76C60.3795 32.6775 56.7789 33.3176 53.4086 34.6428C50.0383 35.9679 46.9659 37.9516 44.3711 40.4778C41.7762 43.004 39.7109 46.0221 38.296 49.3557C36.881 52.6893 36.1446 56.2715 36.13 59.8929C36.1154 63.5143 36.8228 67.1024 38.2108 70.4473C39.5988 73.7922 41.6397 76.8268 44.214 79.3739C46.7884 81.921 49.8446 83.9294 53.2041 85.2817C56.5636 86.6341 60.159 87.3032 63.7801 87.25L63.6701 100Z" fill="#2157DB"/>
<path d="M63.9402 32.37C71.1746 32.5334 78.056 35.5295 83.1044 40.7139C88.1528 45.8982 90.9649 52.8567 90.9361 60.093C90.9073 67.3292 88.0398 74.2651 82.9502 79.4091C77.8607 84.553 70.9557 87.4942 63.7202 87.6" fill="#2157DB"/>
</svg>
